<svg version="1.0" xmlns="http://www.w3.org/2000/svg"
 width="154.000000pt" height="115.000000pt" viewBox="0 0 154.000000 115.000000"
 preserveAspectRatio="xMidYMid meet">

<g transform="translate(0.000000,115.000000) scale(0.100000,-0.100000)"
fill="#000000" stroke="none">
<path d="M1254 1057 c-89 -110 -136 -119 -329 -60 -19 6 -19 6 -2 -11 16 -17
24 -46 11 -46 -3 0 -28 24 -56 53 -44 45 -49 49 -44 25 3 -14 9 -33 12 -42 3
-9 1 -16 -5 -16 -6 0 -16 11 -21 25 -13 34 -40 22 -40 -17 0 -26 -2 -29 -15
-18 -8 7 -15 18 -15 26 0 7 -5 16 -11 20 -9 5 -10 -1 -5 -20 8 -34 -7 -34 -23
2 l-13 27 -18 -49 c-11 -26 -26 -56 -34 -65 -9 -10 -16 -19 -16 -22 0 -4 38
-9 73 -8 12 0 44 0 70 0 41 -1 50 2 54 19 6 24 16 25 33 5 17 -21 37 -19 45 4
4 12 12 18 21 14 7 -3 14 0 14 5 0 18 65 30 134 25 63 -6 66 -7 66 -32 0 -25
-2 -26 -53 -23 -46 3 -58 0 -86 -23 -36 -31 -63 -79 -80 -142 -27 -101 63
-279 168 -332 51 -26 135 -42 181 -35 55 9 108 -11 117 -44 8 -33 -28 -102
-76 -144 -63 -56 -277 -136 -328 -123 -14 3 -31 0 -40 -7 -12 -10 -17 -9 -24
5 -13 23 -46 21 -54 -3 -8 -25 -37 -26 -137 -5 -82 18 -118 37 -118 64 0 30
37 68 94 95 102 48 141 155 118 323 -22 164 -111 260 -233 251 -65 -5 -90 -21
-119 -78 -17 -32 -19 -33 -26 -15 -4 11 -18 37 -31 57 -13 21 -23 39 -23 41 0
2 26 10 58 17 31 7 77 23 102 37 25 13 36 21 25 17 -131 -44 -138 -45 -308
-45 l-167 1 -11 -27 c-12 -31 -4 -83 18 -126 23 -45 93 -117 135 -138 36 -18
51 -39 28 -39 -19 0 -10 -29 13 -41 32 -17 32 -18 12 -33 -18 -13 -18 -14 4
-45 21 -29 22 -35 10 -80 -12 -47 -11 -50 17 -89 43 -58 96 -115 136 -145 l35
-27 485 2 486 3 -39 64 c-21 36 -39 70 -39 77 0 7 27 50 59 96 93 128 100 184
41 319 -32 72 -38 131 -18 174 9 21 9 31 0 46 -7 10 -12 26 -12 34 0 8 -5 15
-11 15 -6 0 -8 9 -4 22 23 71 -27 211 -88 249 -18 10 -36 19 -42 19 -5 0 -33
-29 -61 -63z"/>
<path d="M920 454 c-6 -14 -10 -30 -10 -35 0 -17 -41 -92 -71 -131 -40 -50
-27 -84 49 -126 25 -14 42 -9 42 13 0 30 74 34 90 5 14 -27 28 -25 36 5 3 14
10 25 15 25 13 0 24 73 11 78 -7 2 -10 13 -6 27 5 19 -4 34 -43 72 -26 27 -56
59 -65 71 -23 29 -36 28 -48 -4z m17 -110 c-3 -3 -12 -4 -19 -1 -8 3 -5 6 6 6
11 1 17 -2 13 -5z"/>
</g>
</svg>
